<svg width="69" height="68" viewBox="0 0 69 68" fill="none" xmlns="http://www.w3.org/2000/svg">
<rect x="0.333252" width="68" height="68" rx="16" fill="#F7F7F7"/>
<path d="M36.8333 24H48.0197C48.74 24 49.3333 24.6813 49.3333 25.5085V29.1582C49.3333 29.9854 48.74 30.6667 48.0197 30.6667H37.6666" stroke="black" stroke-linecap="round" stroke-linejoin="round"/>
<path d="M30.9999 30.6667H20.7599C19.9776 30.6667 19.3333 29.9854 19.3333 29.1582V25.5085C19.3333 24.6813 19.9776 24 20.7599 24H31.8333" stroke="black" stroke-linecap="round" stroke-linejoin="round"/>
<path d="M47.6667 30.9194V39.3729M21 30.666V47.3411C21 48.2623 21.7111 48.9993 22.6 48.9993H46.0667C46.9556 48.9993 47.6667 48.2623 47.6667 47.3411V46.7175" stroke="black" stroke-linecap="round" stroke-linejoin="round"/>
<path d="M36 22.3333L39.2063 19.8742C42.5247 18.0219 46 19.1375 46 22.9896V24" stroke="black" stroke-linecap="round" stroke-linejoin="round"/>
<path d="M22.6665 24V23.2741C22.6665 19.8168 26.2506 18.0404 28.9054 19.5303L32.6665 22.3333" stroke="black" stroke-linecap="round" stroke-linejoin="round"/>
<path d="M32.6665 24.0007C32.6665 23.0747 33.3911 22.334 34.2969 22.334H34.3694C35.2752 22.334 35.9998 23.0747 35.9998 24.0007" stroke="black" stroke-linecap="round" stroke-linejoin="round"/>
<path d="M36.8767 35.5514L34.6416 33.689C34.4682 33.5338 34.2177 33.5338 34.0443 33.689L31.8092 35.5514C31.4817 35.8396 31 35.5514 31 35.0858V24.5765C31 24.2661 31.2312 24 31.501 24H37.1657C37.4355 24 37.6667 24.2661 37.6667 24.5765V35.0636C37.6667 35.5292 37.2042 35.8174 36.8574 35.5292L36.8767 35.5514Z" stroke="black" stroke-linecap="round" stroke-linejoin="round"/>
<path d="M49.3333 43.1667C49.3333 44.0871 48.5871 44.8333 47.6667 44.8333C46.7462 44.8333 46 44.0871 46 43.1667C46 42.2462 46.7462 41.5 47.6667 41.5C48.5871 41.5 49.3333 42.2462 49.3333 43.1667Z" fill="#4DAC27"/>
</svg>
