<?xml version="1.0" encoding="iso-8859-1"?>
<!-- Generator: Adobe Illustrator 19.0.0, SVG Export Plug-In . SVG Version: 6.00 Build 0)  -->
<!-- License: CC0. Made by SVG Repo: https://www.svgrepo.com/svg/109818/projector -->
<svg><path d="M135.995 31.9952H47.0166C44.445 32.0391 41.8775 31.7836 39.3696 31.2348C36.9695 30.6886 34.6941 29.7228 32.6571 28.3846C28.2668 25.4961 24.4518 20.607 20.6519 12.9973C18.4194 8.32105 14.5528 4.54662 9.72679 2.33129C6.67335 0.953423 3.36879 0.167557 0 0.0179913H87.913C88.0047 0.0121735 88.2475 0 88.6253 0C91.927 0.0355248 95.1902 0.687677 98.234 1.91939C100.57 2.86606 102.726 4.18222 104.61 5.81403C106.91 7.84018 108.776 10.2795 110.104 12.9945C113.898 20.6042 117.712 25.4932 122.103 28.3818C124.139 29.7198 126.413 30.6856 128.812 31.232C131.169 31.7519 133.582 32.0066 136 31.9904L135.995 31.9952Z" transform="translate(0 0)" fill="#1970E1"></path></svg>